<svg xmlns="http://www.w3.org/2000/svg" xmlns:xlink="http://www.w3.org/1999/xlink" width="40" zoomAndPan="magnify" viewBox="0 0 30 30.000001" height="40" preserveAspectRatio="xMidYMid meet" version="1.0"><defs><filter x="0%" y="0%" width="100%" height="100%" id="e87520e18b"><feColorMatrix values="0 0 0 0 1 0 0 0 0 1 0 0 0 0 1 0 0 0 1 0" color-interpolation-filters="sRGB"/></filter><clipPath id="b354ef5d87"><path d="M 0.484375 0 L 29.515625 0 L 29.515625 29.03125 L 0.484375 29.03125 Z M 0.484375 0 " clip-rule="nonzero"/></clipPath><clipPath id="9f80c6d2b2"><path d="M 15 0 C 6.984375 0 0.484375 6.5 0.484375 14.515625 C 0.484375 22.53125 6.984375 29.03125 15 29.03125 C 23.015625 29.03125 29.515625 22.53125 29.515625 14.515625 C 29.515625 6.5 23.015625 0 15 0 Z M 15 0 " clip-rule="nonzero"/></clipPath><clipPath id="d80e9ae201"><path d="M 2.804688 2.324219 L 27.1875 2.324219 L 27.1875 26.707031 L 2.804688 26.707031 Z M 2.804688 2.324219 " clip-rule="nonzero"/></clipPath><clipPath id="555803a4d1"><path d="M 14.996094 2.324219 C 8.265625 2.324219 2.804688 7.78125 2.804688 14.515625 C 2.804688 21.246094 8.265625 26.707031 14.996094 26.707031 C 21.730469 26.707031 27.1875 21.246094 27.1875 14.515625 C 27.1875 7.78125 21.730469 2.324219 14.996094 2.324219 Z M 14.996094 2.324219 " clip-rule="nonzero"/></clipPath><clipPath id="e73ee55b2c"><path d="M 6 5.515625 L 23.996094 5.515625 L 23.996094 23.515625 L 6 23.515625 Z M 6 5.515625 " clip-rule="nonzero"/></clipPath><clipPath id="f6a7b01d8f"><path d="M 15 5.515625 C 10.027344 5.515625 6 9.546875 6 14.515625 C 6 19.484375 10.027344 23.515625 15 23.515625 C 19.96875 23.515625 23.996094 19.484375 23.996094 14.515625 C 23.996094 9.546875 19.96875 5.515625 15 5.515625 Z M 15 5.515625 " clip-rule="nonzero"/></clipPath><mask id="923cdfa069"><g filter="url(#e87520e18b)"><rect x="-3" width="36" fill="#000000" y="-3" height="36.000001" fill-opacity="0.14"/></g></mask><clipPath id="52f22e12f2"><path d="M 1 0.515625 L 19 0.515625 L 19 18.515625 L 1 18.515625 Z M 1 0.515625 " clip-rule="nonzero"/></clipPath><clipPath id="2af8095f79"><path d="M 10 0.515625 C 5.03125 0.515625 1 4.546875 1 9.515625 C 1 14.488281 5.03125 18.515625 10 18.515625 C 14.96875 18.515625 19 14.488281 19 9.515625 C 19 4.546875 14.96875 0.515625 10 0.515625 Z M 10 0.515625 " clip-rule="nonzero"/></clipPath><clipPath id="6aab632923"><path d="M 0 0.515625 L 18 0.515625 L 18 18.515625 L 0 18.515625 Z M 0 0.515625 " clip-rule="nonzero"/></clipPath><clipPath id="c8bbff04a3"><path d="M 9 0.515625 C 4.03125 0.515625 0 4.546875 0 9.515625 C 0 14.488281 4.03125 18.515625 9 18.515625 C 13.96875 18.515625 18 14.488281 18 9.515625 C 18 4.546875 13.96875 0.515625 9 0.515625 Z M 9 0.515625 " clip-rule="nonzero"/></clipPath><clipPath id="7f118233f5"><rect x="0" width="18" y="0" height="19"/></clipPath><clipPath id="3b9251b993"><rect x="0" width="20" y="0" height="19"/></clipPath><clipPath id="f949dd11d6"><path d="M 12.929688 12.449219 L 17.070312 12.449219 L 17.070312 16.585938 L 12.929688 16.585938 Z M 12.929688 12.449219 " clip-rule="nonzero"/></clipPath><clipPath id="d44b79cdcb"><path d="M 15 12.449219 C 13.859375 12.449219 12.929688 13.375 12.929688 14.515625 C 12.929688 15.660156 13.859375 16.585938 15 16.585938 C 16.140625 16.585938 17.070312 15.660156 17.070312 14.515625 C 17.070312 13.375 16.140625 12.449219 15 12.449219 Z M 15 12.449219 " clip-rule="nonzero"/></clipPath><clipPath id="df34452539"><path d="M 0.929688 0.449219 L 5.070312 0.449219 L 5.070312 4.585938 L 0.929688 4.585938 Z M 0.929688 0.449219 " clip-rule="nonzero"/></clipPath><clipPath id="64ab3c087f"><path d="M 3 0.449219 C 1.859375 0.449219 0.929688 1.375 0.929688 2.515625 C 0.929688 3.660156 1.859375 4.585938 3 4.585938 C 4.140625 4.585938 5.070312 3.660156 5.070312 2.515625 C 5.070312 1.375 4.140625 0.449219 3 0.449219 Z M 3 0.449219 " clip-rule="nonzero"/></clipPath><clipPath id="aabd11516c"><rect x="0" width="6" y="0" height="5"/></clipPath><clipPath id="07c1dd18e8"><path d="M 13.910156 13.425781 L 16.089844 13.425781 L 16.089844 15.605469 L 13.910156 15.605469 Z M 13.910156 13.425781 " clip-rule="nonzero"/></clipPath><clipPath id="539e1f1d6d"><path d="M 15 13.425781 C 14.398438 13.425781 13.910156 13.914062 13.910156 14.515625 C 13.910156 15.117188 14.398438 15.605469 15 15.605469 C 15.601562 15.605469 16.089844 15.117188 16.089844 14.515625 C 16.089844 13.914062 15.601562 13.425781 15 13.425781 Z M 15 13.425781 " clip-rule="nonzero"/></clipPath><clipPath id="651af97f3b"><path d="M 0.910156 0.425781 L 3.089844 0.425781 L 3.089844 2.605469 L 0.910156 2.605469 Z M 0.910156 0.425781 " clip-rule="nonzero"/></clipPath><clipPath id="7adf6ee4f3"><path d="M 2 0.425781 C 1.398438 0.425781 0.910156 0.914062 0.910156 1.515625 C 0.910156 2.117188 1.398438 2.605469 2 2.605469 C 2.601562 2.605469 3.089844 2.117188 3.089844 1.515625 C 3.089844 0.914062 2.601562 0.425781 2 0.425781 Z M 2 0.425781 " clip-rule="nonzero"/></clipPath><clipPath id="74a142d0f9"><rect x="0" width="4" y="0" height="3"/></clipPath><clipPath id="3f9a8b5719"><path d="M 14 26 L 16 26 L 16 29.03125 L 14 29.03125 Z M 14 26 " clip-rule="nonzero"/></clipPath><clipPath id="f5981417d1"><path d="M 26 14 L 29.515625 14 L 29.515625 15 L 26 15 Z M 26 14 " clip-rule="nonzero"/></clipPath><clipPath id="e717916c73"><path d="M 0.484375 14 L 4 14 L 4 15 L 0.484375 15 Z M 0.484375 14 " clip-rule="nonzero"/></clipPath><clipPath id="acce8b8cbb"><path d="M 19 19 L 29.515625 19 L 29.515625 29 L 19 29 Z M 19 19 " clip-rule="nonzero"/></clipPath><clipPath id="b3e5d5d05d"><path d="M 0.484375 0 L 11 0 L 11 11 L 0.484375 11 Z M 0.484375 0 " clip-rule="nonzero"/></clipPath><clipPath id="64846c4e89"><path d="M 0.484375 18 L 11 18 L 11 29 L 0.484375 29 Z M 0.484375 18 " clip-rule="nonzero"/></clipPath><clipPath id="7d069a2b85"><path d="M 19 0 L 29.515625 0 L 29.515625 11 L 19 11 Z M 19 0 " clip-rule="nonzero"/></clipPath></defs><g clip-path="url(#b354ef5d87)"><g clip-path="url(#9f80c6d2b2)"><path stroke-linecap="butt" transform="matrix(0.725806, 0, 0, 0.725806, 0.48387, 0.00000193548)" fill="none" stroke-linejoin="miter" d="M 20.000001 -0.00000266667 C 8.956251 -0.00000266667 0.000695111 8.955553 0.000695111 19.999303 C 0.000695111 31.043053 8.956251 39.998609 20.000001 39.998609 C 31.043751 39.998609 39.999307 31.043053 39.999307 19.999303 C 39.999307 8.955553 31.043751 -0.00000266667 20.000001 -0.00000266667 Z M 20.000001 -0.00000266667 " stroke="#6e583b" stroke-width="2.4" stroke-opacity="1" stroke-miterlimit="4"/></g></g><g clip-path="url(#d80e9ae201)"><g clip-path="url(#555803a4d1)"><path stroke-linecap="butt" transform="matrix(0.725806, 0, 0, 0.725806, 2.806451, 2.322583)" fill="none" stroke-linejoin="miter" d="M 16.794619 0.0022543 C 7.521529 0.0022543 -0.00242954 7.520831 -0.00242954 16.799303 C -0.00242954 26.072393 7.521529 33.596352 16.794619 33.596352 C 26.073092 33.596352 33.591668 26.072393 33.591668 16.799303 C 33.591668 7.520831 26.073092 0.0022543 16.794619 0.0022543 Z M 16.794619 0.0022543 " stroke="#6e583b" stroke-width="0.8" stroke-opacity="1" stroke-miterlimit="4"/></g></g><g clip-path="url(#e73ee55b2c)"><g clip-path="url(#f6a7b01d8f)"><path stroke-linecap="butt" transform="matrix(0.725806, 0, 0, 0.725806, 5.999999, 5.516131)" fill="none" stroke-linejoin="miter" d="M 12.400001 -0.000697048 C 5.548785 -0.000697048 0.00000073 5.55347 0.00000073 12.399303 C 0.00000073 19.245136 5.548785 24.799303 12.400001 24.799303 C 19.245834 24.799303 24.794619 19.245136 24.794619 12.399303 C 24.794619 5.55347 19.245834 -0.000697048 12.400001 -0.000697048 Z M 12.400001 -0.000697048 " stroke="#ab8a5e" stroke-width="1.6" stroke-opacity="1" stroke-miterlimit="4"/></g></g><g mask="url(#923cdfa069)"><g transform="matrix(1, 0, 0, 1, 5, 5)"><g clip-path="url(#3b9251b993)"><g clip-path="url(#52f22e12f2)"><g clip-path="url(#2af8095f79)"><g transform="matrix(1, 0, 0, 1, 1, 0.000000000000005329)"><g clip-path="url(#7f118233f5)"><g clip-path="url(#6aab632923)"><g clip-path="url(#c8bbff04a3)"><path fill="#ab8a5e" d="M 0 0.515625 L 18 0.515625 L 18 18.515625 L 0 18.515625 Z M 0 0.515625 " fill-opacity="1" fill-rule="nonzero"/></g></g></g></g></g></g></g></g></g><g clip-path="url(#f949dd11d6)"><g clip-path="url(#d44b79cdcb)"><g transform="matrix(1, 0, 0, 1, 12, 12)"><g clip-path="url(#aabd11516c)"><g clip-path="url(#df34452539)"><g clip-path="url(#64ab3c087f)"><path fill="#ab8a5e" d="M 0.929688 0.449219 L 5.070312 0.449219 L 5.070312 4.585938 L 0.929688 4.585938 Z M 0.929688 0.449219 " fill-opacity="1" fill-rule="nonzero"/></g></g></g></g></g></g><g clip-path="url(#07c1dd18e8)"><g clip-path="url(#539e1f1d6d)"><g transform="matrix(1, 0, 0, 1, 13, 13)"><g clip-path="url(#74a142d0f9)"><g clip-path="url(#651af97f3b)"><g clip-path="url(#7adf6ee4f3)"><path fill="#e4cdab" d="M 0.910156 0.425781 L 3.089844 0.425781 L 3.089844 2.605469 L 0.910156 2.605469 Z M 0.910156 0.425781 " fill-opacity="1" fill-rule="nonzero"/></g></g></g></g></g></g><g clip-path="url(#3f9a8b5719)"><path stroke-linecap="butt" transform="matrix(0, -0.725806, 0.725806, 0, 14.632327, 29.027491)" fill="none" stroke-linejoin="miter" d="M 0.000203247 0.50119 L 3.374682 0.50119 " stroke="#6e583b" stroke-width="1" stroke-opacity="1" stroke-miterlimit="4"/></g><path stroke-linecap="butt" transform="matrix(0, -0.725806, 0.725806, 0, 14.632327, 2.608137)" fill="none" stroke-linejoin="miter" d="M -0.00170608 0.50119 L 3.372773 0.50119 " stroke="#6e583b" stroke-width="1" stroke-opacity="1" stroke-miterlimit="4"/><g clip-path="url(#f5981417d1)"><path stroke-linecap="butt" transform="matrix(0.725806, 0, 0, 0.725806, 27.048385, 14.008065)" fill="none" stroke-linejoin="miter" d="M -0.0020798 0.500172 L 7.602608 0.500172 " stroke="#6e583b" stroke-width="1" stroke-opacity="1" stroke-miterlimit="4"/></g><g clip-path="url(#e717916c73)"><path stroke-linecap="butt" transform="matrix(0.725806, 0, 0, 0.725806, -2.419355, 14.153228)" fill="none" stroke-linejoin="miter" d="M 0.00191036 0.499303 L 7.601216 0.499303 " stroke="#6e583b" stroke-width="1" stroke-opacity="1" stroke-miterlimit="4"/></g><g clip-path="url(#acce8b8cbb)"><path stroke-linecap="butt" transform="matrix(0.513223, 0.513223, -0.513223, 0.513223, 23.878104, 22.883223)" fill="none" stroke-linejoin="miter" d="M 0.000381731 0.50116 L 3.20851 0.497354 " stroke="#6e583b" stroke-width="1" stroke-opacity="1" stroke-miterlimit="4"/></g><g clip-path="url(#b3e5d5d05d)"><path stroke-linecap="butt" transform="matrix(0.513223, 0.513223, -0.513223, 0.513223, 5.007137, 4.157417)" fill="none" stroke-linejoin="miter" d="M -0.000478358 0.500545 L 3.211456 0.500545 " stroke="#6e583b" stroke-width="1" stroke-opacity="1" stroke-miterlimit="4"/></g><g clip-path="url(#64846c4e89)"><path stroke-linecap="butt" transform="matrix(0.513223, -0.513223, 0.513223, 0.513223, 4.237302, 24.270528)" fill="none" stroke-linejoin="miter" d="M -0.00188083 0.498517 L 3.210054 0.498517 " stroke="#6e583b" stroke-width="1" stroke-opacity="1" stroke-miterlimit="4"/></g><g clip-path="url(#7d069a2b85)"><path stroke-linecap="butt" transform="matrix(0.513223, -0.513223, 0.513223, 0.513223, 23.621492, 6.057944)" fill="none" stroke-linejoin="miter" d="M -0.00102069 0.502585 L 3.207108 0.498779 " stroke="#6e583b" stroke-width="1" stroke-opacity="1" stroke-miterlimit="4"/></g></svg>